HIERARCHY
ROOT Hips
{
	OFFSET	0.00	0.00	0.00
	CHANNELS 6 Xposition Yposition Zposition Zrotation Xrotation Yrotation
	JOINT LeftUpLeg
	{
		OFFSET	 0.126116	-0.065224	 0.014019
		CHANNELS 3 Zrotation Xrotation Yrotation
		JOINT LeftLeg
		{
			OFFSET	 0.000000	 0.569914	 0.000000
			CHANNELS 3 Zrotation Xrotation Yrotation
			JOINT LeftFoot
			{
				OFFSET	 0.000000	 0.544423	 0.000000
				CHANNELS 3 Zrotation Xrotation Yrotation
				JOINT LeftToeBase
				{
					OFFSET	 0.000000	 0.207117	 0.000000
					CHANNELS 3 Zrotation Xrotation Yrotation
					End Site
					{
						OFFSET	 0.000000	 0.207117	 0.000000
					}
				}
			}
		}
	}
	JOINT RightUpLeg
	{
		OFFSET	-0.124023	-0.065224	 0.008373
		CHANNELS 3 Zrotation Xrotation Yrotation
		JOINT RightLeg
		{
			OFFSET	 0.000000	 0.570047	 0.000000
			CHANNELS 3 Zrotation Xrotation Yrotation
			JOINT RightFoot
			{
				OFFSET	 0.000000	 0.544354	 0.000000
				CHANNELS 3 Zrotation Xrotation Yrotation
				JOINT RightToeBase
				{
					OFFSET	 0.000000	 0.207540	 0.000000
					CHANNELS 3 Zrotation Xrotation Yrotation
					End Site
					{
						OFFSET	 0.000000	 0.207540	 0.000000
					}
				}
			}
		}
	}
	JOINT Spine
	{
		OFFSET	 0.000184	 0.117403	 0.007763
		CHANNELS 3 Zrotation Xrotation Yrotation
		JOINT Spine1
		{
			OFFSET	 0.000000	 0.137269	 0.000000
			CHANNELS 3 Zrotation Xrotation Yrotation
			JOINT Spine2
			{
				OFFSET	 0.000000	 0.156879	 0.000000
				CHANNELS 3 Zrotation Xrotation Yrotation
				JOINT LeftShoulder
				{
					OFFSET	 0.080501	 0.160143	 0.002496
					CHANNELS 3 Zrotation Xrotation Yrotation
					JOINT LeftArm
					{
						OFFSET	 0.000000	 0.164363	 0.000000
						CHANNELS 3 Zrotation Xrotation Yrotation
						JOINT LeftForeArm
						{
							OFFSET	 0.000000	 0.364576	 0.000000
							CHANNELS 3 Zrotation Xrotation Yrotation
							JOINT LeftHand
							{
								OFFSET	 0.000000	 0.360812	 0.000000
								CHANNELS 3 Zrotation Xrotation Yrotation
								JOINT LeftHandIndex1
								{
									OFFSET	 0.000000	 0.086006	 0.000000
									CHANNELS 3 Zrotation Xrotation Yrotation
									JOINT LeftHandIndex2
									{
										OFFSET	 0.000000	 0.047237	 0.000000
										CHANNELS 3 Zrotation Xrotation Yrotation
										JOINT LeftHandIndex3
										{
											OFFSET	-0.004284	 0.038165	 0.000551
											CHANNELS 3 Zrotation Xrotation Yrotation
											End Site
											{
												OFFSET	-0.004284	 0.038165	 0.000551
											}
										}
									}
								}
							}
						}
					}
				}
				JOINT Neck
				{
					OFFSET	 0.000000	 0.176489	 0.000000
					CHANNELS 3 Zrotation Xrotation Yrotation
					JOINT Head
					{
						OFFSET	 0.000000	 0.077941	 0.001747
						CHANNELS 3 Zrotation Xrotation Yrotation
						End Site
						{
							OFFSET	 0.000000	 0.077941	 0.001747
						}
					}
				}
				JOINT RightShoulder
				{
					OFFSET	-0.080363	 0.159706	-0.000306
					CHANNELS 3 Zrotation Xrotation Yrotation
					JOINT RightArm
					{
						OFFSET	 0.000000	 0.164196	 0.000000
						CHANNELS 3 Zrotation Xrotation Yrotation
						JOINT RightForeArm
						{
							OFFSET	 0.000000	 0.365611	 0.000000
							CHANNELS 3 Zrotation Xrotation Yrotation
							JOINT RightHand
							{
								OFFSET	 0.000000	 0.360648	 0.000000
								CHANNELS 3 Zrotation Xrotation Yrotation
								JOINT RightHandIndex1
								{
									OFFSET	 0.000000	 0.069977	 0.000000
									CHANNELS 3 Zrotation Xrotation Yrotation
									JOINT RightHandIndex2
									{
										OFFSET	 0.000000	 0.052305	 0.000000
										CHANNELS 3 Zrotation Xrotation Yrotation
										JOINT RightHandIndex3
										{
											OFFSET	 0.009002	 0.042196	 0.000782
											CHANNELS 3 Zrotation Xrotation Yrotation
											End Site
											{
												OFFSET	 0.009002	 0.042196	 0.000782
											}
										}
									}
								}
							}
						}
					}
				}
			}
		}
	}
}
MOTION
Frames:    7
Frame Time: 0.03333334
-0.043306	 1.241491	-3.653112	-4.091756	 0.457950	-173.298900	 170.788700	 6.227721	-5.500229	 4.274583	-29.350820	 5.842965	 5.881013	 79.173020	 1.922514	 1.532204	 31.487640	-2.821066	 169.295900	 35.778930	 12.858400	-5.758463	-53.151210	 6.073532	 10.209500	 70.088480	-6.988865	-1.691394	 33.292780	 3.390763	-1.467177	 7.919401	 5.902007	-3.772738	 4.652593	 4.034517	 3.924120	-4.855967	-14.664890	-121.502500	 8.069388	 94.370480	 13.748970	 45.204850	 1.578791	 34.350580	-1.672468	 0.433035	 25.020900	-15.607650	 32.287820	 4.682933	 19.591090	-1.719116	-5.862525	 22.033330	 2.435848	 5.347907	 4.724027	-0.162113	-0.175972	-4.858493	 0.035163	-1.989719	-2.742511	-6.818439	 118.340000	-0.539442	-90.581080	 22.376730	 45.994250	-20.821840	-31.926610	-1.192113	-0.282468	 18.123660	-17.390420	 18.657770	-2.076557	 23.465510	 1.148497	 15.287620	 42.670020	-10.951240	-8.535094	 21.382260	-1.055437
-0.035758	 1.223483	-3.867208	-3.848244	-0.741829	-171.440300	 172.881000	-5.717644	-3.687019	 3.529775	-24.914670	 6.929624	 15.077430	 82.781640	-9.023991	 2.027292	 37.237490	-3.078427	 169.847900	 31.752310	 15.597480	-0.914537	-11.983940	 11.281280	 9.236874	 57.091340	-8.060490	-1.714167	 33.679860	 2.909196	-0.666595	 7.254951	 2.824130	-3.304759	 5.063551	 3.055214	 3.777465	-5.029673	-14.938850	-121.261900	 9.330829	 94.977210	 33.975800	 33.966840	-9.860985	 24.793070	-1.243129	 0.189371	 29.913530	-12.320620	 17.286980	 4.803505	 19.925210	-1.781196	-5.861899	 22.446420	 2.481665	 5.372322	 5.298166	-0.151961	-0.165522	-4.931787	 0.222643	-1.529032	-3.198733	-6.493244	 118.151400	-1.234607	-90.256770	 28.345550	 43.766700	-22.129610	-26.010330	-0.988466	-0.169709	 11.252570	-6.508915	 11.616500	-1.639478	 18.425730	 0.945823	 14.279440	 37.652190	-9.219181	-8.524587	 16.561710	-0.744741
-0.022741	 1.190460	-4.044621	-3.348261	-0.660213	-170.656300	 175.776500	-13.679500	-2.600162	 3.806896	-26.606790	 4.717597	-8.877999	 81.937880	 13.388790	 3.508667	 50.311560	-4.012944	 170.976700	 41.053050	 12.628420	-1.926654	-24.506050	 9.737249	 12.185690	 66.827450	-8.739589	-1.857392	 35.340500	 2.983877	 0.228955	 6.963662	 0.138169	-3.088654	 4.551899	 2.361391	 3.798597	-4.742635	-14.612950	-121.065800	 9.574820	 95.078690	 32.640880	 32.973160	-11.118020	 31.054110	-1.529007	 0.341005	 27.521140	-10.829290	 13.452710	 5.083419	 20.498890	-1.915710	-5.861872	 23.452780	 2.593858	 5.429940	 6.660021	-0.128833	-0.137664	-5.104046	 0.304645	-1.281354	-3.187424	-5.622658	 118.394900	-1.750623	-90.024970	 31.158070	 42.043570	-20.717690	-27.279760	-1.033025	-0.192175	 15.143020	 0.205238	 2.610042	-1.392888	 11.643000	 0.851936	 13.331490	 31.191380	-7.295807	-8.469213	 10.097310	-0.336078
-0.008871	 1.195143	-4.216830	-1.318383	 1.277214	-168.932200	-179.405500	-14.176180	-3.497086	 5.779983	-37.227470	 5.174508	-11.525620	 62.938620	 14.610910	 6.475307	 65.672420	-5.374500	 176.759400	 34.966010	 8.239587	-2.522672	-30.342560	 9.354602	-3.323888	 58.534820	-2.287692	-1.754865	 34.158220	 2.930044	 2.192863	 7.151410	-1.760771	-2.876445	 3.445170	 1.686221	 4.055281	-3.882280	-14.213160	-120.890900	 8.787855	 94.669980	 25.940330	 37.238350	-6.273243	 32.103950	-1.575323	 0.369426	 20.292010	-5.347778	 17.609940	 5.038726	 21.277170	-1.948603	-5.865144	 24.778680	 2.743040	 5.499235	 8.309471	-0.102594	-0.077135	-5.153066	 0.212435	-1.706998	-1.653632	-5.295430	 119.144700	-2.205110	-89.826460	 26.041600	 43.149600	-16.872840	-21.987520	-0.844116	-0.105379	 10.930520	 0.942540	 4.529156	-1.717597	 10.165280	 0.981759	 13.186740	 29.958890	-6.958494	-8.451982	 8.753024	-0.251347
-0.001339	 1.219364	-4.399376	-0.278659	 2.632338	-171.755600	-177.657200	 1.279264	-8.835168	 13.339360	-60.122880	 13.319010	-11.153460	 66.718890	 13.752080	 3.248147	 48.244220	-3.308332	-178.463400	 27.872120	 5.692879	-3.164083	-36.280450	 4.590509	-13.489080	 66.513730	 9.765257	-1.594302	 32.240910	 2.849590	 2.582963	 7.999386	 1.291152	-2.882638	 3.016902	 2.232346	 3.886592	-3.504825	-13.102430	-120.488800	 8.050011	 94.271520	 14.790940	 43.463010	-0.399625	 31.028370	-1.527663	 0.340288	 13.581120	-1.909170	 27.084460	 5.008217	 22.949910	-2.040420	-5.872910	 26.191940	 2.903970	 5.578140	 10.200540	-0.074853	 0.007595	-5.027211	-0.002851	-1.804428	-1.542159	-5.623183	 119.617400	-1.335213	-90.244830	 20.189800	 46.494910	-14.777450	-28.722610	-1.083108	-0.218785	 13.898880	-4.468536	 11.475870	-2.106087	 14.237650	 1.174290	 13.680750	 33.849850	-8.053014	-8.487714	 11.748280	-0.440102
 0.004251	 1.238936	-4.562352	 0.625462	 3.710475	-174.109000	-174.493700	 14.427910	-14.216570	 24.059950	-71.989960	 23.632440	-9.357817	 62.333710	 13.094880	 1.737561	 33.831180	-2.861104	-175.518000	 18.144300	 4.650697	-3.056967	-35.345140	 1.417279	-23.994520	 70.510220	 21.468310	-1.466569	 30.657970	 2.789112	 2.842711	 8.719049	 3.831421	-2.784237	 3.055869	 2.817632	 3.637623	-3.366090	-11.912080	-120.161200	 7.438811	 93.947060	 6.974305	 47.471860	 4.108015	 24.591970	-1.233550	 0.185032	 10.558420	-0.477634	 33.391250	 4.984953	 24.330880	-2.116371	-5.882761	 27.358660	 3.038505	 5.642955	 11.761720	-0.053822	 0.077893	-4.923543	-0.180699	-1.882913	-1.436082	-5.823342	 120.012300	-0.619681	-90.595560	 6.886154	 49.194930	-6.581192	-26.001330	-0.988071	-0.169564	 12.447720	-8.480692	 16.193170	-2.443468	 17.597690	 1.357940	 14.176830	 37.054500	-9.028530	-8.509867	 14.220810	-0.596171
 0.003434	 1.252972	-4.729207	-0.230371	 2.593646	-176.474000	-174.106400	 30.751620	-20.741540	 18.363110	-67.181990	 14.587040	-11.942940	 67.191530	 17.786900	 1.453804	 30.507030	-2.784513	-175.736000	 8.700909	 3.888377	-2.654267	-31.627350	-1.042072	-42.233390	 73.966670	 38.562360	-1.682120	 33.299570	 2.892998	 1.155064	 8.208681	 6.339223	-2.535000	 3.424382	 3.372121	 2.993250	-3.704787	-10.054870	-120.136200	 6.225415	 93.358040	-11.692960	 50.425840	 17.381210	 27.972110	-1.390434	 0.262460	 3.022886	-1.129909	 38.538700	 5.034479	 26.430050	-2.162844	-5.906001	 29.275530	 3.263298	 5.728615	 13.831880	-0.028538	 0.108500	-4.837126	-0.412367	-2.308098	-1.870209	-5.819424	 119.759300	 0.371210	-91.058910	-12.266000	 50.449410	 2.633764	-18.875330	-0.729260	-0.062661	 2.460556	-15.403130	 16.327230	-2.700641	 18.952980	 1.468648	 14.433970	 38.516890	-9.500358	-8.520579	 15.818180	-0.697428
